<?xml version="1.0" encoding="utf-8"?>
<!-- Generator: Adobe Illustrator 19.0.0, SVG Export Plug-In . SVG Version: 6.00 Build 0)  -->
<svg version="1.1" id="Layer_1" xmlns:sketch="http://www.bohemiancoding.com/sketch/ns"
	 xmlns="http://www.w3.org/2000/svg" xmlns:xlink="http://www.w3.org/1999/xlink" x="0px" y="0px" viewBox="-37 39 24 24"
	 style="enable-background:new -37 39 24 24;" xml:space="preserve">
<style type="text/css">
	.st0{fill:#FFFFFF;}
	.st1{fill:#404040;}
</style>
<title></title>
<desc></desc>
<g id="slice" transform="translate(215.000000, 119.000000)">
</g>
<g>
	<g>
		<path class="st0" d="M-35,41.7c-0.6,0-1,0.4-1,1v13c0,0.6,0.4,1,1,1h2l2.8,3.3c0.4,0.4,1,0.4,1.3,0l2.9-3.3h11c0.6,0,1-0.4,1-1
			v-13c0-0.6-0.4-1-1-1H-35z"/>
		<polygon class="st0" points="-35,42.7 -35,55.7 -32.5,55.7 -29.5,59.3 -26.3,55.7 -15,55.7 -15,42.7 		"/>
	</g>
	<g>
		<path class="st1" d="M-31.3,45.5c-0.1,0-0.2,0.1-0.2,0.2v0.6c0,0.1,0.1,0.2,0.2,0.2h12.6c0.1,0,0.2-0.1,0.2-0.2v-0.6
			c0-0.1-0.1-0.2-0.2-0.2H-31.3z"/>
		<path class="st1" d="M-31.3,48.5c-0.1,0-0.2,0.1-0.2,0.2v0.6c0,0.1,0.1,0.2,0.2,0.2h12.6c0.1,0,0.2-0.1,0.2-0.2v-0.6
			c0-0.1-0.1-0.2-0.2-0.2H-31.3z"/>
		<path class="st1" d="M-31.3,51.5c-0.1,0-0.2,0.1-0.2,0.2v0.6c0,0.1,0.1,0.2,0.2,0.2h8.6c0.1,0,0.2-0.1,0.2-0.2v-0.6
			c0-0.1-0.1-0.2-0.2-0.2H-31.3z"/>
	</g>
</g>
</svg>
