<?xml version="1.0" encoding="utf-8"?>
<!-- Generator: Adobe Illustrator 19.0.0, SVG Export Plug-In . SVG Version: 6.00 Build 0)  -->
<svg version="1.1" id="Layer_1" xmlns="http://www.w3.org/2000/svg" xmlns:xlink="http://www.w3.org/1999/xlink" x="0px" y="0px"
	 viewBox="-33 35 32 32" style="enable-background:new -33 35 32 32;" xml:space="preserve">
<style type="text/css">
	.st0{fill:none;stroke:#FFFFFF;stroke-width:2;stroke-linecap:round;stroke-miterlimit:10;}
	.st1{fill:none;stroke:#FFFFFF;stroke-width:2;stroke-miterlimit:10;}
</style>
<g id="Christmas">
	<g id="Bell">
		<path class="st0" d="M-15,64.3l6-10l2.1-2.2c2.5-3.1,2.3-7.6-0.5-10.4l0,0c-2.8-2.8-7.3-3-10.4-0.5l-2.2,2.1l-10,6L-15,64.3z"/>
		<path class="st0" d="M-6,43.1l-2.8-2.8l1.5-1.4c0.8-0.8,2-0.8,2.8,0l0,0c0.8,0.8,0.8,2,0,2.8L-6,43.1z"/>
		<line class="st0" x1="-25" y1="46.3" x2="-12" y2="59.3"/>
		<path class="st1" d="M-20,59.3l-1,1c-1.4,1.4-3.7,1.3-5,0l0,0c-1.2-1.2-1.4-3.6,0-5l1-1L-20,59.3z"/>
	</g>
</g>
<g id="Shop_1_">
</g>
</svg>
