<?xml version="1.0" encoding="utf-8"?>
<!-- Generator: Adobe Illustrator 18.1.0, SVG Export Plug-In . SVG Version: 6.00 Build 0)  -->
<svg version="1.1" id="Layer_1" xmlns="http://www.w3.org/2000/svg" xmlns:xlink="http://www.w3.org/1999/xlink" x="0px" y="0px"
	 viewBox="-49 141 512 512" enable-background="new -49 141 512 512" xml:space="preserve">
<path d="M260,452.6c-7.1,0-14.5,2.9-18.4,12.7h-0.3v-56.5h-24.6v161.6h22.9v-13.1h0.3c4,10.6,11.8,16.4,19.7,16.8
	c18-0.8,21.5-23.1,21.5-42.5v-39.7C281,473.9,276.2,452.6,260,452.6L260,452.6z M256.4,527.7c0,7.3,0.3,19.8-7.6,19.8
	c-6,0.2-7.6-11.2-7.6-21.1v-27c0-11,1.4-20,8-20c7.1,0,7.1,11.9,7.1,18.6V527.7L256.4,527.7z"/>
<path d="M167.8,538c0,5.9-2.8,9.4-7.1,9.6c-4.6,0.4-5.7-4.3-6-9.6v-82.1H130v94.2c0,15.5,7.8,24.1,22,24.1c7.8,0,14.9-9,17.2-17.8
	h0.3v14.1h22.9V455.9h-24.6L167.8,538L167.8,538z"/>
<path d="M137.8,408.9h-91l0.4,23.9h31.6l-0.4,136.3h27.3l0.5-136.3h32.1L137.8,408.9z"/>
<path d="M334.1,452.6c-19.1,0.2-33.2,9.8-33.2,39.3v46.6c0,26.2,15.5,35.8,33.2,35.6c21.3-0.4,33.5-13.9,32.2-43.4h-24.4
	c-0.5,9.6,0.4,20.5-8.7,19.8c-5.4-0.4-7.6-5.7-7.6-12.1v-20.1h41.7v-32.7C367.2,461,351.3,452.4,334.1,452.6z M342.6,497h-17.1v-7.6
	c0-8,1.7-15.3,8.7-15.3c6.3,0,8.4,7.6,8.4,11.7V497L342.6,497z"/>
<path d="M373.3,152.4H38.5c-41.5,0-75.1,33.6-75.1,75.2V563c0,41.5,33.6,75.2,75.1,75.2h334.8c41.5,0,75.1-33.7,75.1-75.2V227.6
	C448.4,186.1,414.8,152.4,373.3,152.4L373.3,152.4z M254.7,216h25.1v83.9c0.3,5.5,1.5,10.2,6.2,9.8c4.4-0.2,7.3-3.7,7.3-9.8V216
	h25.1v117.1h-23.4v-14.4h-0.3c-2.4,9-9.7,18.2-17.6,18.2c-14.5,0-22.5-8.8-22.5-24.7L254.7,216L254.7,216z M171.1,252.9
	c0-30.1,13.4-40.2,32.9-40.2c22.1,0,32.9,13.8,32.9,40.2v47.7c-1.3,26.5-13.8,36.4-32.9,36.4c-18,0-32.9-9.7-32.9-36.4L171.1,252.9
	L171.1,252.9z M111.2,176.3l13.8,51.2h0.4l14.2-51.2h27.8l-28.6,91v65.9H111v-65.9l-28-91L111.2,176.3L111.2,176.3z M397.1,566.2
	c0,26.6-21.3,48.1-47.6,48.1H62.3c-26.3,0-47.6-21.5-47.6-48.1V409c0-26.5,21.3-48.1,47.6-48.1h287.2c26.3,0,47.6,21.5,47.6,48.1
	V566.2L397.1,566.2z"/>
<path d="M205.1,316.4c5.1,0,7.2-3.5,7.6-10v-51.2c0-7.4-1.9-13.3-7.6-13.3c-5.7,0-7.6,6-7.6,13.3v51.2
	C198,312.9,200,316.4,205.1,316.4L205.1,316.4z"/>
<g id="Outline_Color_copy_2">
	<path fill="#FFFFFF" d="M394.4,158.9c26.7,0,47.1,20.7,47.1,47.7v381.7c0,27-20.4,47.7-47.1,47.7H17.8c-26.7,0-47.1-20.7-47.1-47.7
		V206.6c0-27,20.4-47.7,47.1-47.7H394.4 M394.4,143H17.8c-34.5,0-62.8,28.6-62.8,63.6v381.7c0,35,28.2,63.6,62.8,63.6h376.6
		c34.5,0,62.8-28.6,62.8-63.6V206.6C457.2,171.6,428.9,143,394.4,143L394.4,143z"/>
</g>
</svg>
