<?xml version="1.0" encoding="utf-8"?>
<!-- Generator: Adobe Illustrator 19.0.0, SVG Export Plug-In . SVG Version: 6.00 Build 0)  -->
<svg version="1.1" id="Layer_1" xmlns="http://www.w3.org/2000/svg" xmlns:xlink="http://www.w3.org/1999/xlink" x="0px" y="0px"
	 viewBox="-17 19 64 64" style="enable-background:new -17 19 64 64;" xml:space="preserve">
<style type="text/css">
	.st0{fill:#FFFFFF;}
</style>
<g>
	<path class="st0" d="M16.2,29.7c-1.3-1.3-2.4-0.4-2.7-0.1L-6,49.1h0c-2.6,2.6,0,2.7,0,2.7h0.2c0.4,0,1.9,0.2,1.9,2.6V78
		c0,1.3,0.5,4.6,4.2,4.6h28.3c4.2,0,4.3-4.4,4.4-5V54.6c0-2.9,2.4-2.8,2.4-2.8h0.5c0.4,0,2.3-0.1-0.1-2.5L16.2,29.7z"/>
	<path class="st0" d="M45.7,48.4L19,21.3c0,0,0,0,0,0c-3.4-3.4-6.4-1.3-7.4-0.3L-15.9,48c0,0-2.1,2-0.6,3.5l0.2,0.2
		c0,0,1.3,1.5,3.5-0.7l25.5-25.1l0,0l0.1-0.1c0.5-0.5,2.6-2.1,4.8,0.1l25.2,25.5c0,0,2,2.1,3.4,0.7l0.6-0.5c0,0,0,0,0,0
		C47.8,50.4,45.7,48.4,45.7,48.4z"/>
</g>
</svg>
