<?xml version="1.0" encoding="utf-8"?>
<!-- Generator: Adobe Illustrator 19.0.0, SVG Export Plug-In . SVG Version: 6.00 Build 0)  -->
<svg version="1.1" id="Layer_1" xmlns="http://www.w3.org/2000/svg" xmlns:xlink="http://www.w3.org/1999/xlink" x="0px" y="0px"
	 viewBox="0 0 50 50" style="enable-background:new 0 0 50 50;" xml:space="preserve">
<style type="text/css">
	.st0{fill:#FE9500;}
	.st1{fill:#FFFFFF;}
</style>
<g>
	<circle id="XMLID_2_" class="st0" cx="25" cy="25.4" r="23.9"/>
	<path id="XMLID_1_" class="st1" d="M12.3,25.1c0.9-0.7,1.8-1.3,2.8-2c2,1.6,4,3.1,6.1,4.8c4.6-5.3,9.8-9.9,15.7-13.6
		c0.3,0.4,0.5,0.8,0.7,1.2c0,0.1,0,0.3,0,0.4c-2.1,2.2-4.3,4.4-6.3,6.8c-1.7,2-3.2,4.2-4.6,6.4c-1.4,2.2-2.6,4.6-3.9,6.8
		C22,34.9,21,34,20,33c-2.6-2.6-5.1-5.1-7.6-7.7C12.3,25.2,12.3,25.1,12.3,25.1z"/>
</g>
</svg>
